
<svg xmlns="http://www.w3.org/2000/svg" baseProfile="tiny" width="100%" height="auto" viewBox="0 0 1024 1024">
  <defs>
    <linearGradient id="gradient-1" x1="0" y1="0" x2="80%" y2="80%">
      <stop offset="0%" stop-color="rgb(81,162,233)" />
      <stop offset="100%" stop-color="rgb(168,120,162)" />
    </linearGradient>
    <linearGradient id="gradient-2" x1="20%" y1="20%" x2="100%" y2="100%">
      <stop offset="0%" stop-color="rgb(168,120,162)" />
      <stop offset="100%" stop-color="rgb(255,77,90)" />
    </linearGradient>
  </defs>
  <path d="M503,104 L502,105 L494,105 L493,106 L489,106 L488,107 L485,107 L484,108 L482,108 L481,109 L478,109 L477,110 L476,110 L475,111 L473,111 L472,112 L471,112 L470,113 L469,113 L468,114 L467,114 L466,115 L465,115 L464,116 L463,116 L462,117 L461,117 L459,119 L458,119 L457,120 L441,120 L440,121 L436,121 L435,122 L433,122 L432,123 L430,123 L429,124 L428,124 L427,125 L425,125 L424,126 L423,126 L422,127 L421,127 L420,128 L419,128 L418,129 L417,129 L416,130 L415,130 L414,131 L413,131 L412,132 L411,132 L409,134 L408,134 L407,135 L406,135 L404,137 L403,137 L401,139 L400,139 L397,142 L396,142 L392,146 L391,146 L385,152 L384,152 L368,168 L368,169 L362,175 L362,176 L357,181 L357,182 L354,185 L354,186 L351,189 L351,190 L348,193 L348,194 L345,197 L345,198 L343,200 L343,201 L341,203 L341,204 L339,206 L339,207 L337,209 L337,210 L336,211 L336,212 L334,214 L334,215 L333,216 L333,217 L331,219 L331,220 L330,221 L330,222 L329,223 L329,224 L327,226 L327,227 L326,228 L326,229 L325,230 L325,231 L324,232 L324,233 L323,234 L323,235 L322,236 L322,237 L321,238 L321,240 L320,241 L320,242 L319,243 L319,244 L318,245 L318,247 L317,248 L317,249 L316,250 L316,252 L315,253 L315,255 L314,256 L314,258 L313,259 L313,262 L312,263 L312,265 L311,266 L311,270 L310,271 L310,277 L309,278 L309,290 L309,289 L310,288 L310,286 L311,285 L311,284 L312,283 L312,282 L313,281 L313,279 L314,278 L314,277 L315,276 L315,275 L316,274 L316,273 L317,272 L317,270 L318,269 L318,268 L319,267 L319,266 L321,264 L321,263 L322,262 L322,261 L323,260 L323,259 L324,258 L324,257 L326,255 L326,254 L327,253 L327,252 L329,250 L329,249 L331,247 L331,246 L333,244 L333,243 L335,241 L335,240 L339,236 L339,235 L345,229 L345,228 L355,218 L356,218 L362,212 L363,212 L367,208 L368,208 L370,206 L371,206 L372,205 L373,205 L374,204 L375,204 L376,203 L378,203 L379,204 L376,207 L376,208 L362,222 L362,223 L353,232 L353,233 L347,239 L347,240 L342,245 L342,246 L339,249 L339,250 L336,253 L336,254 L333,257 L333,258 L331,260 L331,261 L329,263 L329,264 L327,266 L327,267 L325,269 L325,270 L324,271 L324,272 L322,274 L322,275 L321,276 L321,277 L320,278 L320,279 L319,280 L319,281 L318,282 L318,283 L317,284 L317,286 L316,287 L316,288 L315,289 L315,291 L314,292 L314,293 L313,294 L313,296 L312,297 L312,299 L311,300 L311,302 L310,303 L310,305 L309,306 L309,309 L308,310 L308,313 L307,314 L307,318 L306,319 L306,323 L305,324 L305,330 L304,331 L304,342 L303,343 L303,352 L304,353 L304,363 L305,364 L305,369 L306,370 L306,373 L307,374 L307,377 L308,378 L308,380 L309,381 L309,382 L310,383 L310,385 L311,386 L311,387 L312,388 L312,389 L313,390 L313,391 L314,392 L314,393 L315,394 L315,395 L316,396 L316,397 L318,399 L318,400 L319,401 L319,402 L321,404 L321,405 L322,406 L322,407 L324,409 L324,410 L326,412 L326,413 L328,415 L328,416 L330,418 L330,419 L332,421 L332,422 L335,425 L335,426 L337,428 L337,429 L340,432 L340,433 L343,436 L343,437 L345,439 L345,440 L348,443 L348,444 L350,446 L350,447 L352,449 L352,450 L353,451 L353,452 L354,453 L354,454 L355,455 L355,456 L356,457 L356,458 L357,459 L357,461 L358,462 L358,463 L359,464 L359,466 L360,467 L360,469 L361,470 L361,472 L362,473 L362,475 L363,476 L363,480 L364,481 L364,487 L365,488 L365,499 L364,500 L364,507 L363,508 L363,512 L362,513 L362,516 L361,517 L361,520 L360,521 L360,523 L359,524 L359,525 L358,526 L358,528 L357,529 L357,530 L356,531 L356,532 L355,533 L355,534 L354,535 L355,536 L356,535 L423,535 L424,536 L431,536 L432,537 L436,537 L437,538 L439,538 L440,539 L441,539 L442,540 L443,540 L450,547 L450,548 L451,549 L451,550 L452,551 L452,552 L453,553 L453,554 L454,555 L454,557 L455,558 L455,559 L456,560 L456,562 L457,563 L457,564 L458,565 L458,567 L459,568 L459,570 L460,571 L460,573 L461,574 L461,577 L462,578 L462,580 L463,581 L463,584 L464,585 L464,587 L465,588 L465,591 L466,592 L466,594 L467,595 L467,598 L468,599 L468,601 L469,602 L469,604 L470,605 L470,608 L471,609 L471,612 L472,613 L472,615 L473,616 L473,619 L474,620 L474,622 L475,623 L475,626 L476,627 L476,629 L477,630 L477,633 L478,634 L478,636 L479,637 L479,640 L480,641 L480,643 L481,644 L481,647 L482,648 L482,651 L483,652 L483,654 L484,655 L484,658 L485,659 L485,661 L486,662 L486,665 L487,666 L487,668 L488,669 L488,672 L489,673 L489,675 L490,676 L490,679 L491,680 L491,682 L492,683 L492,686 L493,687 L493,690 L494,691 L494,693 L495,694 L495,697 L496,698 L496,700 L497,701 L497,704 L498,705 L498,707 L499,708 L499,711 L500,712 L500,714 L501,715 L501,718 L502,719 L502,722 L503,723 L503,725 L504,726 L504,729 L505,730 L505,732 L506,733 L506,736 L507,737 L507,739 L508,740 L508,743 L509,744 L509,746 L510,747 L510,750 L511,751 L511,753 L512,754 L512,757 L513,758 L513,760 L514,761 L514,764 L515,765 L515,767 L516,768 L516,771 L517,772 L517,774 L518,775 L518,778 L519,779 L519,781 L520,782 L520,785 L521,786 L521,788 L522,789 L522,792 L523,793 L523,795 L524,796 L524,799 L525,800 L525,803 L526,804 L526,807 L527,808 L527,811 L528,812 L528,819 L529,820 L529,822 L669,822 L670,823 L684,823 L685,824 L695,824 L696,825 L696,826 L697,827 L697,828 L698,829 L698,830 L699,831 L698,832 L543,832 L542,833 L517,833 L516,832 L516,830 L517,829 L517,816 L516,815 L516,812 L515,811 L515,808 L514,807 L514,804 L513,803 L513,801 L512,800 L512,798 L511,797 L511,794 L510,793 L510,791 L509,790 L509,787 L508,786 L508,784 L507,783 L507,780 L506,779 L506,777 L505,776 L505,773 L504,772 L504,770 L503,769 L503,766 L502,765 L502,762 L501,761 L501,759 L500,758 L500,755 L499,754 L499,752 L498,751 L498,748 L497,747 L497,745 L496,744 L496,741 L495,740 L495,738 L494,737 L494,734 L493,733 L493,731 L492,730 L492,727 L491,726 L491,723 L490,722 L490,720 L489,719 L489,716 L488,715 L488,713 L487,712 L487,709 L486,708 L486,706 L485,705 L485,702 L484,701 L484,699 L483,698 L483,695 L482,694 L482,692 L481,691 L481,688 L480,687 L480,684 L479,683 L479,681 L478,680 L478,677 L477,676 L477,674 L476,673 L476,670 L475,669 L475,667 L474,666 L474,663 L473,662 L473,660 L472,659 L472,656 L471,655 L471,652 L470,651 L470,649 L469,648 L469,646 L468,645 L468,642 L467,641 L467,638 L466,637 L466,635 L465,634 L465,631 L464,630 L464,628 L463,627 L463,624 L462,623 L462,621 L461,620 L461,617 L460,616 L460,614 L459,613 L459,610 L458,609 L458,607 L457,606 L457,603 L456,602 L456,599 L455,598 L455,596 L454,595 L454,592 L453,591 L453,589 L452,588 L452,585 L451,584 L451,581 L450,580 L450,576 L449,575 L449,571 L448,570 L448,568 L447,567 L447,566 L446,565 L446,564 L445,563 L445,562 L444,561 L444,560 L443,559 L443,558 L442,557 L442,556 L440,554 L440,553 L438,551 L437,551 L435,549 L434,549 L433,548 L430,548 L429,547 L325,547 L324,548 L259,548 L258,549 L181,549 L180,550 L118,550 L117,551 L69,551 L68,552 L65,552 L64,553 L63,553 L62,554 L61,554 L55,560 L55,561 L54,562 L54,563 L53,564 L53,567 L52,568 L52,579 L53,580 L53,584 L54,585 L54,587 L55,588 L55,591 L56,592 L56,594 L57,595 L57,597 L58,598 L58,600 L59,601 L59,603 L60,604 L60,606 L61,607 L61,609 L62,610 L62,613 L63,614 L63,616 L64,617 L64,619 L65,620 L65,622 L66,623 L66,625 L67,626 L67,628 L68,629 L68,631 L69,632 L69,634 L70,635 L70,638 L71,639 L71,641 L72,642 L72,644 L73,645 L73,647 L74,648 L74,650 L75,651 L75,653 L76,654 L76,656 L77,657 L77,660 L78,661 L78,663 L79,664 L79,666 L80,667 L80,669 L81,670 L81,672 L82,673 L82,675 L83,676 L83,679 L84,680 L84,682 L85,683 L85,685 L86,686 L86,688 L87,689 L87,691 L88,692 L88,694 L89,695 L89,697 L90,698 L90,701 L91,702 L91,704 L92,705 L92,707 L93,708 L93,710 L94,711 L94,713 L95,714 L95,716 L96,717 L96,720 L97,721 L97,723 L98,724 L98,726 L99,727 L99,729 L100,730 L100,732 L101,733 L101,735 L102,736 L102,739 L103,740 L103,742 L104,743 L104,745 L105,746 L105,748 L106,749 L106,751 L107,752 L107,754 L108,755 L108,758 L109,759 L109,761 L110,762 L110,764 L111,765 L111,767 L112,768 L112,770 L113,771 L113,773 L114,774 L114,777 L115,778 L115,780 L116,781 L116,783 L117,784 L117,786 L118,787 L118,789 L119,790 L119,793 L120,794 L120,796 L121,797 L121,799 L122,800 L122,802 L123,803 L123,805 L124,806 L124,808 L125,809 L125,811 L126,812 L126,814 L127,815 L127,817 L128,818 L128,820 L129,821 L129,822 L130,823 L130,824 L131,825 L131,826 L132,827 L132,828 L134,830 L134,831 L141,838 L142,838 L144,840 L145,840 L147,842 L148,842 L150,844 L151,844 L152,845 L153,845 L154,846 L153,847 L135,847 L134,848 L57,848 L56,849 L8,849 L8,869 L1015,869 L1015,847 L1014,848 L927,848 L926,847 L927,846 L928,846 L928,845 L931,842 L931,841 L932,840 L932,839 L933,838 L933,837 L934,836 L934,834 L935,833 L935,830 L936,829 L936,813 L935,812 L935,807 L934,806 L934,803 L933,802 L933,800 L932,799 L932,797 L931,796 L931,794 L930,793 L930,791 L929,790 L929,789 L928,788 L928,786 L927,785 L927,784 L926,783 L926,782 L925,781 L925,780 L924,779 L924,778 L923,777 L923,775 L922,774 L922,773 L921,772 L921,771 L920,770 L920,769 L919,768 L919,767 L918,766 L918,765 L917,764 L917,763 L916,762 L916,761 L915,760 L915,759 L914,758 L914,757 L912,755 L912,754 L911,753 L911,752 L910,751 L910,750 L909,749 L909,748 L908,747 L908,746 L907,745 L907,744 L906,743 L906,742 L905,741 L905,740 L904,739 L904,738 L903,737 L903,736 L902,735 L902,734 L901,733 L901,732 L900,731 L900,730 L898,728 L898,727 L897,726 L897,725 L896,724 L896,723 L895,722 L895,721 L894,720 L894,719 L893,718 L893,717 L892,716 L892,715 L891,714 L891,713 L890,712 L890,711 L889,710 L889,709 L888,708 L888,707 L887,706 L887,705 L886,704 L886,703 L885,702 L885,701 L884,700 L884,699 L883,698 L883,697 L882,696 L882,693 L883,692 L883,690 L884,689 L884,688 L886,686 L886,685 L888,683 L888,682 L892,678 L892,677 L893,676 L893,675 L892,674 L892,673 L890,671 L890,670 L889,669 L889,668 L887,666 L887,665 L886,664 L886,663 L884,661 L884,660 L883,659 L883,658 L881,656 L881,655 L880,654 L880,653 L878,651 L878,650 L877,649 L877,648 L875,646 L875,645 L874,644 L874,643 L872,641 L872,640 L871,639 L871,638 L869,636 L869,635 L868,634 L868,633 L866,631 L866,630 L865,629 L865,628 L863,626 L863,625 L862,624 L862,623 L860,621 L860,620 L858,618 L858,617 L857,616 L857,615 L856,614 L856,613 L854,611 L854,610 L853,609 L853,608 L851,606 L851,605 L849,603 L849,602 L848,601 L848,600 L846,598 L846,597 L845,596 L845,595 L843,593 L843,592 L842,591 L842,590 L841,589 L841,588 L839,586 L839,585 L838,584 L838,583 L837,582 L837,581 L836,580 L836,575 L835,574 L835,569 L834,568 L834,564 L833,563 L833,560 L832,559 L832,556 L831,555 L831,552 L830,551 L830,549 L829,548 L829,546 L828,545 L828,543 L827,542 L827,540 L826,539 L826,537 L825,536 L825,534 L824,533 L824,532 L823,531 L823,529 L822,528 L822,527 L821,526 L821,524 L820,523 L820,522 L819,521 L819,520 L818,519 L818,518 L817,517 L817,516 L816,515 L816,513 L814,511 L814,510 L813,509 L813,508 L812,507 L812,506 L811,505 L811,504 L810,503 L810,502 L808,500 L808,499 L807,498 L807,497 L805,495 L805,494 L803,492 L803,491 L801,489 L801,488 L799,486 L799,485 L796,482 L796,481 L792,477 L792,476 L773,457 L772,457 L767,452 L766,452 L763,449 L762,449 L758,445 L757,445 L753,441 L752,441 L748,437 L747,437 L742,432 L741,432 L720,411 L720,410 L716,406 L716,405 L714,403 L714,402 L712,400 L712,399 L710,397 L710,396 L709,395 L709,394 L707,392 L707,391 L706,390 L706,389 L705,388 L705,386 L704,385 L704,384 L703,383 L703,382 L702,381 L702,379 L701,378 L701,376 L700,375 L700,374 L699,373 L699,371 L698,370 L698,367 L697,366 L697,364 L696,363 L696,360 L695,359 L695,356 L694,355 L694,352 L693,351 L693,347 L692,346 L692,342 L691,341 L691,337 L690,336 L690,331 L689,330 L689,324 L688,323 L688,317 L687,316 L687,310 L686,309 L686,303 L685,302 L685,297 L684,296 L684,291 L683,290 L683,285 L682,284 L682,280 L681,279 L681,274 L680,273 L680,269 L679,268 L679,264 L678,263 L678,259 L677,258 L677,254 L676,253 L676,250 L675,249 L675,246 L674,245 L674,242 L673,241 L673,238 L672,237 L672,234 L671,233 L671,231 L670,230 L670,227 L669,226 L669,224 L668,223 L668,221 L667,220 L667,218 L666,217 L666,215 L665,214 L665,213 L664,212 L664,210 L663,209 L663,207 L662,206 L662,205 L661,204 L661,202 L660,201 L660,200 L659,199 L659,198 L658,197 L658,195 L657,194 L657,193 L656,192 L656,191 L655,190 L655,189 L654,188 L654,187 L653,186 L653,185 L652,184 L652,183 L650,181 L650,180 L649,179 L649,178 L648,177 L648,176 L646,174 L646,173 L644,171 L644,170 L643,169 L643,168 L640,165 L640,164 L638,162 L638,161 L634,157 L634,156 L619,141 L618,141 L614,137 L613,137 L611,135 L610,135 L608,133 L607,133 L605,131 L604,131 L602,129 L601,129 L600,128 L599,128 L598,127 L597,127 L596,126 L595,126 L593,124 L592,124 L591,123 L590,123 L589,122 L587,122 L586,121 L585,121 L584,120 L583,120 L582,119 L581,119 L580,118 L578,118 L577,117 L575,117 L574,116 L573,116 L572,115 L570,115 L569,114 L567,114 L566,113 L564,113 L563,112 L561,112 L560,111 L557,111 L556,110 L554,110 L553,109 L549,109 L548,108 L545,108 L544,107 L540,107 L539,106 L534,106 L533,105 L525,105 L524,104 Z" stroke="url(#gradient-1)" stroke-width="2" fill="none" /><path d="M842,685 L843,684 L855,684 L856,685 L857,685 L860,688 L860,689 L861,690 L861,691 L863,693 L863,694 L864,695 L864,696 L865,697 L865,698 L866,699 L866,700 L867,701 L867,702 L868,703 L868,704 L869,705 L869,706 L870,707 L870,708 L871,709 L871,710 L872,711 L872,712 L873,713 L873,714 L874,715 L874,716 L875,717 L875,718 L876,719 L876,720 L877,721 L877,722 L878,723 L878,724 L879,725 L879,726 L880,727 L880,728 L881,729 L881,730 L883,732 L883,733 L884,734 L884,735 L885,736 L885,737 L886,738 L886,739 L887,740 L887,741 L888,742 L888,743 L889,744 L889,745 L890,746 L890,747 L891,748 L891,749 L892,750 L892,751 L893,752 L893,753 L894,754 L894,755 L896,757 L896,758 L897,759 L897,760 L898,761 L898,762 L899,763 L899,764 L900,765 L900,766 L901,767 L901,768 L902,769 L902,770 L903,771 L903,772 L904,773 L904,774 L905,775 L905,776 L906,777 L906,778 L907,779 L907,780 L908,781 L908,782 L909,783 L909,784 L910,785 L910,786 L911,787 L911,788 L912,789 L912,791 L913,792 L913,793 L914,794 L914,796 L915,797 L915,799 L916,800 L916,802 L917,803 L917,806 L918,807 L918,812 L919,813 L919,818 L918,819 L918,823 L917,824 L917,826 L916,827 L916,828 L909,835 L908,835 L907,836 L906,836 L905,837 L904,837 L903,838 L901,838 L900,839 L895,839 L894,840 L840,840 L839,839 L824,839 L823,838 L813,838 L812,837 L803,837 L802,836 L794,836 L793,835 L787,835 L786,834 L780,834 L779,833 L774,833 L773,832 L768,832 L767,831 L763,831 L762,830 L758,830 L757,829 L753,829 L752,828 L749,828 L748,827 L746,827 L745,826 L742,826 L741,825 L738,825 L737,824 L735,824 L734,823 L732,823 L731,822 L729,822 L728,821 L726,821 L725,820 L724,820 L723,819 L721,819 L720,818 L718,818 L717,817 L715,817 L714,816 L712,816 L711,815 L709,815 L708,814 L705,814 L704,813 L697,813 L696,812 L687,812 L686,811 L677,811 L676,810 L665,810 L664,809 L662,809 L661,808 L659,808 L658,807 L657,807 L656,806 L655,806 L654,805 L653,805 L652,804 L651,804 L649,802 L648,802 L646,800 L645,800 L643,798 L642,798 L640,796 L639,796 L636,793 L635,793 L633,791 L632,791 L630,789 L629,789 L626,786 L625,786 L624,785 L623,785 L621,783 L620,783 L619,782 L618,782 L617,781 L616,781 L615,780 L628,767 L628,766 L630,764 L630,763 L631,762 L631,761 L630,761 L629,762 L627,762 L626,763 L624,763 L623,764 L622,764 L621,765 L619,765 L618,766 L617,766 L616,767 L615,767 L614,768 L613,768 L612,769 L611,769 L610,770 L609,770 L608,771 L607,771 L593,785 L593,786 L588,791 L588,792 L585,795 L585,796 L573,808 L572,808 L571,809 L566,809 L564,807 L564,801 L565,800 L565,798 L566,797 L566,796 L567,795 L567,794 L568,793 L568,792 L569,791 L569,790 L570,789 L570,788 L571,787 L571,786 L573,784 L573,783 L575,781 L575,780 L579,776 L579,775 L581,773 L581,772 L584,769 L584,768 L587,765 L587,764 L593,758 L594,758 L598,754 L599,754 L601,752 L602,752 L604,750 L605,750 L607,748 L608,748 L609,747 L610,747 L611,746 L612,746 L614,744 L614,743 L615,742 L615,739 L613,739 L612,740 L610,740 L609,741 L608,741 L607,742 L606,742 L605,743 L603,743 L602,744 L601,744 L599,746 L598,746 L597,747 L596,747 L577,766 L577,767 L574,770 L574,771 L570,775 L570,776 L567,779 L567,780 L564,783 L564,784 L560,788 L560,789 L552,797 L552,798 L546,804 L545,804 L541,800 L541,796 L542,795 L542,792 L543,791 L543,790 L544,789 L544,787 L545,786 L545,785 L546,784 L546,782 L547,781 L547,780 L548,779 L548,777 L549,776 L549,775 L550,774 L550,772 L551,771 L551,770 L552,769 L552,768 L555,765 L555,764 L559,760 L559,759 L564,754 L564,753 L572,745 L572,744 L574,742 L574,741 L576,739 L577,739 L579,737 L580,737 L581,736 L582,736 L584,734 L585,734 L586,733 L587,733 L588,732 L589,732 L592,729 L592,728 L594,726 L593,726 L592,727 L591,727 L590,728 L589,728 L588,729 L587,729 L586,730 L585,730 L584,731 L583,731 L582,732 L581,732 L580,733 L579,733 L578,734 L577,734 L576,735 L574,735 L573,736 L572,736 L564,744 L563,744 L561,746 L561,747 L553,755 L553,756 L549,760 L549,761 L545,765 L545,766 L541,770 L541,771 L538,774 L538,775 L536,777 L536,778 L535,779 L535,780 L534,781 L534,782 L533,783 L532,782 L532,781 L531,780 L531,778 L530,777 L530,775 L529,774 L529,772 L528,771 L528,769 L529,768 L529,766 L530,765 L530,764 L531,763 L531,762 L532,761 L532,760 L534,758 L534,757 L535,756 L535,755 L538,752 L538,751 L551,738 L552,738 L558,732 L559,732 L564,727 L565,727 L567,725 L568,725 L570,723 L571,723 L572,722 L573,722 L574,721 L576,721 L577,720 L578,720 L579,719 L580,719 L581,718 L582,718 L583,717 L585,717 L586,716 L587,716 L588,715 L601,715 L602,716 L604,716 L605,717 L606,717 L607,718 L609,718 L610,719 L611,719 L612,720 L614,720 L615,721 L616,721 L617,722 L618,722 L619,723 L620,723 L622,725 L623,725 L625,727 L626,727 L627,728 L628,728 L630,730 L631,730 L633,732 L634,732 L636,734 L637,734 L638,735 L639,735 L640,736 L641,736 L644,739 L645,739 L648,742 L649,742 L653,746 L654,746 L657,749 L658,749 L661,752 L662,752 L665,755 L666,755 L667,756 L668,756 L670,758 L672,758 L673,759 L674,759 L675,760 L676,760 L677,761 L678,761 L680,763 L681,763 L682,764 L683,764 L684,765 L685,765 L686,766 L688,766 L689,767 L691,767 L692,768 L694,768 L695,769 L697,769 L698,770 L705,770 L706,771 L716,771 L717,772 L728,772 L729,773 L746,773 L747,774 L780,774 L781,773 L794,773 L795,772 L805,772 L806,771 L821,771 L822,770 L857,770 L858,771 L863,771 L864,772 L867,772 L868,773 L870,773 L865,768 L864,768 L862,766 L861,766 L860,765 L859,765 L858,764 L857,764 L856,763 L855,763 L854,762 L852,762 L851,761 L848,761 L847,760 L844,760 L843,759 L841,759 L840,758 L836,758 L835,757 L830,757 L829,756 L808,756 L807,757 L797,757 L796,758 L794,756 L794,754 L793,753 L793,751 L792,750 L792,748 L791,747 L791,746 L790,745 L790,743 L789,742 L789,741 L788,740 L789,739 L789,738 L790,737 L790,736 L791,735 L791,734 L792,733 L792,732 L793,731 L793,730 L794,729 L794,728 L795,727 L795,726 L796,725 L796,724 L798,722 L798,721 L800,719 L800,718 L802,716 L802,715 L805,712 L805,711 L810,706 L810,705 L817,698 L818,698 L822,694 L823,694 L825,692 L826,692 L827,691 L828,691 L830,689 L831,689 L832,688 L834,688 L835,687 L836,687 L837,686 L839,686 L840,685 Z" stroke="url(#gradient-2)" stroke-width="2" fill="none" /><path d="M260,665 L261,664 L262,664 L263,665 L267,665 L268,666 L271,666 L272,667 L274,667 L275,668 L277,668 L278,669 L279,669 L281,671 L282,671 L284,673 L285,673 L287,675 L288,675 L291,678 L292,678 L297,683 L297,684 L301,688 L301,689 L303,691 L303,692 L304,693 L304,694 L305,695 L305,697 L306,698 L306,701 L307,702 L307,707 L308,708 L308,718 L307,719 L307,724 L306,725 L306,727 L305,728 L305,730 L304,731 L304,732 L303,733 L303,734 L302,735 L302,736 L301,737 L301,738 L292,747 L291,747 L290,748 L289,748 L288,749 L287,749 L286,750 L283,750 L282,751 L267,751 L266,752 L265,752 L264,751 L263,751 L262,750 L261,750 L260,749 L259,749 L258,748 L257,748 L256,747 L255,747 L254,746 L253,746 L251,744 L250,744 L247,741 L246,741 L240,735 L240,734 L238,732 L238,731 L236,729 L236,728 L234,726 L234,725 L232,723 L232,722 L231,721 L231,720 L230,719 L230,718 L229,717 L229,697 L230,696 L230,694 L231,693 L231,691 L232,690 L232,688 L233,687 L233,686 L234,685 L234,684 L236,682 L236,681 L239,678 L239,677 L244,672 L245,672 L247,670 L248,670 L249,669 L250,669 L251,668 L252,668 L253,667 L255,667 L256,666 L257,666 L258,665 Z" stroke="url(#gradient-1)" stroke-width="2" fill="none" /><path d="M260,682 L259,683 L257,683 L256,684 L255,684 L253,686 L252,686 L246,692 L246,693 L245,694 L245,695 L244,696 L244,698 L243,699 L243,712 L244,713 L244,715 L245,716 L245,717 L246,718 L246,719 L247,720 L247,721 L256,730 L257,730 L259,732 L260,732 L261,733 L262,733 L263,734 L264,734 L265,735 L267,735 L268,736 L278,736 L279,735 L281,735 L283,733 L284,733 L286,731 L287,731 L290,728 L290,727 L292,725 L292,723 L293,722 L293,720 L294,719 L294,706 L293,705 L293,702 L292,701 L292,700 L291,699 L291,698 L290,697 L290,696 L283,689 L282,689 L280,687 L279,687 L278,686 L277,686 L276,685 L275,685 L274,684 L273,684 L272,683 L270,683 L269,682 Z" stroke="url(#gradient-2)" stroke-width="2" fill="none" /><path d="M639,606 L640,605 L641,606 L640,607 Z" stroke="url(#gradient-1)" stroke-width="2" fill="none" /><path d="M652,600 L653,599 L654,600 L653,601 Z" stroke="url(#gradient-2)" stroke-width="2" fill="none" /><path d="M662,570 L663,569 L664,570 L663,571 Z" stroke="url(#gradient-1)" stroke-width="2" fill="none" /><path d="M379,560 L380,559 L420,559 L421,560 L424,560 L425,561 L426,561 L427,562 L426,563 L424,563 L423,564 L410,564 L409,565 L393,565 L392,566 L356,566 L355,567 L306,567 L305,568 L234,568 L233,569 L114,569 L113,570 L85,570 L84,569 L66,569 L65,568 L68,565 L70,565 L71,564 L161,564 L162,563 L247,563 L248,562 L304,562 L305,561 L345,561 L346,560 Z" stroke="url(#gradient-2)" stroke-width="2" fill="none" /><path d="M704,492 L706,492 L707,493 L712,493 L713,494 L717,494 L718,495 L721,495 L722,496 L725,496 L726,497 L729,497 L730,498 L732,498 L733,499 L735,499 L736,500 L738,500 L739,501 L740,501 L741,502 L743,502 L744,503 L745,503 L746,504 L748,504 L749,505 L750,505 L751,506 L752,506 L753,507 L754,507 L755,508 L756,508 L758,510 L759,510 L761,512 L762,512 L763,513 L764,513 L767,516 L768,516 L772,520 L773,520 L786,533 L786,534 L791,539 L791,540 L794,543 L794,544 L797,547 L797,548 L799,550 L799,551 L801,553 L801,554 L803,556 L803,557 L805,559 L805,560 L807,562 L807,563 L809,565 L809,566 L810,567 L810,568 L812,570 L812,571 L813,572 L813,573 L815,575 L815,576 L816,577 L816,578 L818,580 L818,581 L819,582 L819,583 L821,585 L821,586 L822,587 L822,588 L824,590 L824,591 L826,593 L826,594 L827,595 L827,596 L828,597 L828,598 L830,600 L830,601 L831,602 L831,603 L833,605 L833,606 L834,607 L834,608 L836,610 L836,611 L837,612 L837,613 L839,615 L839,616 L840,617 L840,618 L841,619 L841,620 L843,622 L843,623 L844,624 L844,625 L846,627 L846,628 L847,629 L847,630 L849,632 L849,633 L850,634 L850,635 L852,637 L852,638 L853,639 L853,640 L855,642 L855,643 L856,644 L856,645 L858,647 L858,648 L859,649 L859,650 L861,652 L861,653 L862,654 L862,655 L864,657 L864,658 L865,659 L865,660 L867,662 L867,663 L866,664 L865,663 L860,663 L859,662 L850,662 L849,663 L843,663 L842,664 L838,664 L837,665 L835,665 L834,666 L832,666 L831,667 L828,667 L827,668 L826,668 L825,669 L823,669 L822,670 L821,670 L820,671 L819,671 L818,672 L817,672 L816,673 L815,673 L814,674 L813,674 L812,675 L811,675 L810,676 L809,676 L807,678 L806,678 L805,679 L804,679 L802,681 L801,681 L798,684 L797,684 L794,687 L793,687 L789,691 L788,691 L770,709 L770,710 L767,713 L767,714 L765,716 L765,717 L763,719 L763,720 L762,721 L762,722 L761,723 L761,724 L760,725 L760,726 L759,727 L759,728 L758,729 L758,730 L756,732 L755,731 L755,730 L754,729 L754,728 L753,727 L753,726 L752,725 L752,723 L751,722 L751,720 L750,719 L750,717 L749,716 L749,714 L748,713 L748,711 L747,710 L747,707 L746,706 L746,704 L745,703 L745,700 L744,699 L744,697 L743,696 L743,693 L742,692 L742,690 L741,689 L741,686 L740,685 L740,683 L739,682 L739,679 L738,678 L738,676 L737,675 L737,672 L736,671 L736,668 L735,667 L735,663 L734,662 L734,658 L733,657 L733,651 L732,650 L732,641 L731,640 L731,613 L732,612 L732,603 L733,602 L733,597 L734,596 L734,591 L735,590 L735,587 L736,586 L736,583 L737,582 L737,579 L738,578 L738,576 L739,575 L739,573 L740,572 L740,571 L741,570 L741,568 L742,567 L742,566 L743,565 L743,563 L744,562 L744,561 L745,560 L745,559 L746,558 L746,557 L747,556 L747,554 L748,553 L748,552 L749,551 L749,550 L750,549 L750,548 L752,546 L752,545 L753,544 L751,544 L750,545 L749,545 L741,553 L741,554 L738,557 L738,558 L736,560 L736,561 L734,563 L734,564 L733,565 L733,566 L732,567 L732,568 L730,570 L730,572 L729,573 L729,574 L728,575 L728,576 L727,577 L727,578 L726,579 L726,580 L725,581 L725,583 L724,584 L724,586 L723,587 L723,588 L722,589 L722,592 L721,593 L721,595 L720,596 L720,598 L719,599 L719,602 L718,603 L718,607 L717,608 L717,612 L716,613 L716,620 L715,621 L715,632 L714,633 L714,665 L713,666 L713,668 L712,669 L712,671 L711,672 L711,674 L710,675 L710,677 L709,678 L709,679 L708,680 L708,682 L707,683 L707,685 L706,686 L706,687 L705,688 L705,690 L704,691 L704,692 L703,693 L703,695 L702,696 L702,697 L701,698 L701,699 L700,700 L700,702 L699,703 L699,704 L698,705 L698,706 L697,707 L697,708 L696,709 L696,710 L695,711 L695,712 L694,713 L694,714 L693,715 L693,716 L692,717 L692,718 L691,719 L691,720 L690,721 L690,722 L689,723 L689,724 L687,726 L687,727 L686,728 L686,729 L685,730 L685,731 L683,733 L683,734 L681,736 L681,737 L679,739 L679,740 L677,742 L677,743 L676,744 L675,744 L670,739 L669,739 L666,736 L665,736 L662,733 L661,733 L659,731 L658,731 L656,729 L655,729 L653,727 L652,727 L650,725 L649,725 L647,723 L646,723 L645,722 L644,722 L642,720 L641,720 L639,718 L638,718 L637,717 L636,717 L634,715 L633,715 L632,714 L631,714 L630,713 L629,713 L628,712 L627,712 L625,710 L624,710 L623,709 L622,709 L621,708 L619,708 L618,707 L617,707 L616,706 L614,706 L613,705 L611,705 L610,704 L608,704 L607,703 L603,703 L602,702 L588,702 L587,703 L584,703 L583,704 L581,704 L580,705 L579,705 L578,706 L576,706 L575,707 L574,707 L573,708 L572,708 L571,709 L569,709 L568,710 L567,710 L565,712 L564,712 L563,713 L562,713 L560,715 L559,715 L557,717 L556,717 L554,719 L553,719 L551,721 L550,721 L548,723 L547,723 L545,725 L544,725 L542,727 L541,727 L528,740 L528,741 L524,745 L524,746 L522,748 L521,747 L521,744 L520,743 L520,740 L519,739 L519,737 L518,736 L518,733 L517,732 L517,730 L516,729 L516,726 L515,725 L515,723 L514,722 L514,719 L513,718 L513,715 L512,714 L512,712 L511,711 L511,709 L510,708 L510,705 L509,704 L509,702 L508,701 L508,699 L507,698 L507,695 L506,694 L506,692 L505,691 L505,688 L504,687 L504,685 L503,684 L503,681 L502,680 L502,678 L501,677 L501,674 L500,673 L500,671 L499,670 L499,667 L498,666 L498,664 L497,663 L497,660 L496,659 L496,657 L495,656 L495,653 L494,652 L494,650 L493,649 L493,646 L492,645 L492,643 L491,642 L491,639 L490,638 L490,636 L489,635 L489,632 L488,631 L488,629 L487,628 L487,626 L486,625 L486,623 L485,622 L485,620 L486,619 L489,622 L490,622 L492,624 L493,624 L494,625 L495,625 L497,627 L498,627 L499,628 L501,628 L502,629 L504,629 L505,630 L507,630 L508,631 L511,631 L512,632 L517,632 L518,633 L533,633 L534,632 L539,632 L540,631 L543,631 L544,630 L547,630 L548,629 L549,629 L550,628 L552,628 L553,627 L554,627 L555,626 L557,626 L559,624 L560,624 L561,623 L562,623 L563,622 L564,622 L565,621 L566,621 L567,620 L568,620 L570,618 L571,618 L573,616 L574,616 L577,613 L578,613 L581,610 L582,610 L599,593 L599,591 L600,590 L601,590 L602,591 L602,592 L620,610 L621,610 L624,613 L625,613 L627,615 L628,615 L630,617 L631,617 L632,618 L633,618 L634,619 L636,619 L637,620 L638,620 L639,621 L640,621 L641,622 L643,622 L644,623 L646,623 L647,624 L650,624 L651,625 L655,625 L656,626 L662,626 L661,625 L659,625 L658,624 L657,624 L656,623 L655,623 L653,621 L652,621 L649,618 L648,618 L645,615 L645,614 L642,611 L642,610 L640,608 L640,607 L641,606 L642,606 L644,608 L645,608 L646,609 L647,609 L648,610 L650,610 L651,611 L652,611 L653,612 L655,612 L656,613 L659,613 L660,614 L663,614 L664,615 L671,615 L672,616 L681,616 L682,615 L688,615 L689,614 L692,614 L693,613 L695,613 L696,612 L697,612 L692,612 L691,611 L688,611 L687,610 L686,610 L685,609 L684,609 L683,608 L682,608 L681,607 L680,607 L679,606 L679,605 L680,604 L680,600 L681,599 L681,595 L682,594 L682,590 L683,589 L683,585 L684,584 L684,580 L685,579 L685,576 L686,575 L686,571 L687,570 L687,566 L688,565 L688,561 L689,560 L689,556 L690,555 L690,552 L691,551 L691,547 L692,546 L692,542 L693,541 L693,537 L694,536 L694,532 L695,531 L695,527 L696,526 L696,523 L697,522 L697,518 L698,517 L698,513 L699,512 L699,508 L700,507 L700,504 L701,503 L701,499 L702,498 L702,494 Z" stroke="url(#gradient-1)" stroke-width="2" fill="none" /><path d="M382,487 L383,486 L386,489 L386,490 L387,491 L387,495 L388,496 L388,516 L387,517 L387,523 L386,524 L386,529 L385,530 L385,533 L384,534 L383,533 L383,520 L384,519 L384,515 L383,514 L383,491 L382,490 Z" stroke="url(#gradient-2)" stroke-width="2" fill="none" /><path d="M573,474 L574,473 L575,474 L575,482 L574,483 L574,499 L573,500 L573,505 L574,506 L574,520 L575,521 L575,527 L576,528 L576,532 L577,533 L577,536 L578,537 L578,539 L579,540 L579,542 L580,543 L580,544 L581,545 L581,547 L582,548 L582,549 L583,550 L583,551 L584,552 L584,553 L585,554 L585,555 L586,556 L586,557 L587,558 L587,559 L588,560 L588,561 L589,562 L589,563 L591,565 L591,566 L593,568 L593,569 L595,571 L595,572 L596,573 L576,593 L575,593 L571,597 L570,597 L568,599 L567,599 L565,601 L564,601 L562,603 L561,603 L560,604 L559,604 L557,606 L556,606 L555,607 L554,607 L553,608 L552,608 L551,609 L550,609 L549,610 L547,610 L546,611 L545,611 L544,612 L541,612 L540,613 L537,613 L536,614 L532,614 L531,615 L512,615 L511,614 L506,614 L505,613 L503,613 L502,612 L501,612 L500,611 L499,611 L498,610 L497,610 L494,607 L493,607 L485,599 L485,598 L483,596 L483,595 L482,594 L482,593 L481,592 L481,591 L480,590 L480,588 L479,587 L479,585 L478,584 L478,582 L477,581 L477,577 L476,576 L476,570 L475,569 L475,553 L476,552 L476,546 L477,545 L477,542 L478,541 L478,540 L479,539 L480,539 L481,538 L486,538 L488,540 L488,542 L489,543 L489,545 L490,546 L490,547 L491,548 L491,549 L492,550 L492,551 L493,552 L493,553 L494,554 L494,556 L495,557 L495,558 L496,559 L496,560 L497,561 L497,562 L498,563 L498,564 L500,566 L500,567 L501,568 L501,569 L505,573 L506,573 L506,570 L505,569 L505,557 L504,556 L504,552 L503,551 L503,547 L502,546 L502,543 L501,542 L501,540 L500,539 L500,537 L499,536 L499,535 L498,534 L498,533 L497,532 L497,531 L498,530 L501,530 L502,529 L504,529 L505,528 L507,528 L508,527 L509,527 L510,526 L511,526 L512,525 L513,525 L514,524 L515,524 L516,523 L517,523 L518,522 L519,522 L521,520 L522,520 L523,519 L524,519 L526,517 L527,517 L529,515 L530,515 L532,513 L533,513 L536,510 L537,510 L541,506 L542,506 L547,501 L548,501 L568,481 L568,480 L573,475 Z" stroke="url(#gradient-1)" stroke-width="2" fill="none" /><path d="M637,456 L638,455 L639,456 L639,474 L640,475 L640,482 L641,483 L641,487 L642,488 L642,491 L643,492 L643,495 L644,496 L644,500 L645,501 L645,505 L646,506 L646,509 L647,510 L647,513 L648,514 L648,517 L649,518 L649,521 L650,522 L650,525 L651,526 L651,530 L652,531 L652,533 L653,534 L653,537 L654,538 L654,541 L655,542 L655,544 L656,545 L656,548 L657,549 L657,551 L658,552 L658,554 L659,555 L659,557 L660,558 L660,560 L661,561 L661,563 L662,564 L662,566 L663,567 L663,569 L662,570 L661,569 L661,568 L660,567 L660,566 L658,564 L658,563 L657,562 L657,561 L656,560 L656,559 L654,557 L654,556 L653,555 L653,554 L652,553 L652,551 L651,550 L651,549 L650,548 L650,547 L649,546 L649,544 L648,543 L648,542 L647,541 L647,539 L646,538 L646,536 L645,535 L645,534 L644,533 L644,531 L643,530 L643,527 L642,526 L642,524 L641,523 L641,520 L640,519 L640,516 L639,515 L639,511 L638,510 L638,505 L637,504 L637,493 L636,492 L636,462 L637,461 Z" stroke="url(#gradient-2)" stroke-width="2" fill="none" /><path d="M618,434 L619,433 L620,434 L620,443 L619,444 L619,453 L618,454 L618,463 L617,464 L617,473 L616,474 L616,485 L615,486 L615,522 L616,523 L616,529 L617,530 L617,534 L618,535 L618,538 L619,539 L619,542 L620,543 L620,546 L621,547 L621,549 L622,550 L622,552 L623,553 L623,555 L624,556 L624,557 L625,558 L625,560 L626,561 L626,562 L627,563 L627,564 L628,565 L628,566 L629,567 L629,568 L630,569 L630,570 L631,571 L631,572 L633,574 L633,575 L635,577 L635,578 L637,580 L637,581 L639,583 L639,584 L642,587 L642,588 L653,599 L652,600 L651,600 L650,599 L649,599 L647,597 L646,597 L643,594 L642,594 L627,579 L627,578 L624,575 L624,574 L622,572 L622,571 L620,569 L620,568 L619,567 L619,566 L618,565 L618,564 L617,563 L617,562 L616,561 L616,560 L615,559 L615,558 L614,557 L614,556 L613,555 L613,553 L612,552 L612,551 L611,550 L611,548 L610,547 L610,545 L609,544 L609,542 L608,541 L608,538 L607,537 L607,534 L606,533 L606,529 L605,528 L605,521 L604,520 L604,503 L605,502 L605,492 L606,491 L606,484 L607,483 L607,477 L608,476 L608,472 L609,471 L609,467 L610,466 L610,463 L611,462 L611,459 L612,458 L612,455 L613,454 L613,452 L614,451 L614,448 L615,447 L615,445 L616,444 L616,442 L617,441 L617,438 L618,437 Z" stroke="url(#gradient-1)" stroke-width="2" fill="none" /><path d="M619,432 L620,431 L621,432 L621,433 L620,434 L619,433 Z" stroke="url(#gradient-2)" stroke-width="2" fill="none" /><path d="M332,414 L333,413 L334,414 L333,415 Z" stroke="url(#gradient-1)" stroke-width="2" fill="none" /><path d="M374,348 L375,347 L381,347 L382,348 L389,348 L390,349 L395,349 L396,350 L399,350 L400,351 L403,351 L404,352 L406,352 L407,353 L409,353 L410,354 L412,354 L413,355 L415,355 L416,356 L417,356 L418,357 L419,357 L420,358 L421,358 L422,359 L423,359 L424,360 L424,362 L425,363 L425,370 L424,371 L424,375 L423,376 L423,380 L422,381 L422,384 L421,385 L421,388 L420,389 L420,391 L419,392 L419,393 L418,394 L418,395 L410,403 L409,403 L408,404 L407,404 L406,405 L404,405 L403,406 L394,406 L393,407 L390,407 L389,406 L381,406 L380,405 L377,405 L376,404 L374,404 L373,403 L372,403 L371,402 L370,402 L369,401 L368,401 L367,400 L366,400 L365,399 L364,399 L363,398 L362,398 L355,391 L355,390 L353,388 L353,387 L351,385 L351,384 L350,383 L350,382 L349,381 L349,380 L348,379 L348,378 L347,377 L347,375 L346,374 L346,372 L345,371 L345,367 L344,366 L344,361 L343,360 L343,356 L344,355 L344,353 L347,350 L348,350 L349,349 L351,349 L352,348 L356,348 L358,350 L357,351 L356,351 L354,353 L354,360 L355,361 L355,363 L356,364 L356,367 L357,368 L357,369 L358,370 L358,372 L359,373 L359,375 L360,376 L360,377 L361,378 L361,379 L362,380 L362,381 L363,382 L363,383 L364,384 L364,385 L365,386 L365,387 L366,388 L366,389 L369,392 L369,393 L371,395 L371,396 L374,399 L375,399 L376,400 L378,400 L378,393 L377,392 L377,385 L376,384 L376,362 L375,361 L375,354 L374,353 Z" stroke="url(#gradient-2)" stroke-width="2" fill="none" /><path d="M352,359 L352,365 L353,366 L353,368 L354,369 L354,372 L355,373 L355,377 L356,378 L356,381 L357,382 L357,384 L358,385 L358,386 L359,387 L359,388 L362,391 L362,392 L364,394 L365,394 L367,396 L368,396 L369,397 L369,396 L366,393 L366,392 L364,390 L364,389 L363,388 L363,387 L361,385 L361,384 L360,383 L360,382 L359,381 L359,380 L358,379 L358,378 L357,377 L357,375 L356,374 L356,372 L355,371 L355,369 L354,368 L354,366 L353,365 L353,362 L352,361 Z" stroke="url(#gradient-1)" stroke-width="2" fill="none" /><path d="M387,354 L384,357 L385,358 L385,359 L386,359 L387,360 L390,360 L391,361 L391,364 L392,365 L392,368 L393,369 L393,370 L394,371 L394,372 L398,376 L399,376 L401,378 L403,378 L404,379 L409,379 L410,378 L411,378 L414,375 L414,374 L415,373 L415,372 L416,371 L416,362 L417,361 L417,360 L416,360 L415,359 L413,359 L412,358 L410,358 L409,357 L406,357 L405,356 L402,356 L401,355 L393,355 L392,354 Z" stroke="url(#gradient-2)" stroke-width="2" fill="none" /><path d="M576,345 L577,344 L580,344 L581,345 L581,346 L582,347 L582,349 L583,350 L583,352 L584,353 L584,355 L585,356 L585,358 L586,359 L586,361 L587,362 L587,365 L588,366 L588,371 L589,372 L589,378 L590,379 L590,386 L591,387 L591,388 L593,388 L594,387 L595,387 L597,385 L598,385 L599,384 L600,384 L604,380 L605,380 L608,377 L609,377 L610,376 L611,376 L612,377 L613,377 L614,378 L615,378 L617,380 L617,381 L616,382 L616,384 L615,385 L615,386 L613,388 L613,389 L606,396 L605,396 L602,399 L601,399 L599,401 L597,401 L596,402 L594,402 L593,403 L591,403 L590,402 L589,402 L589,404 L588,405 L588,408 L587,409 L587,412 L586,413 L586,416 L585,417 L585,419 L584,420 L584,422 L583,423 L583,424 L582,425 L582,427 L581,428 L581,429 L580,430 L580,432 L579,433 L579,434 L578,435 L578,436 L577,437 L577,438 L576,439 L576,440 L575,441 L575,442 L574,443 L574,444 L572,446 L572,447 L570,449 L570,450 L568,452 L568,453 L565,456 L565,457 L560,462 L560,463 L545,478 L544,478 L539,483 L538,483 L534,487 L533,487 L530,490 L529,490 L526,493 L525,493 L522,496 L521,496 L519,498 L518,498 L515,501 L514,501 L512,503 L511,503 L509,505 L508,505 L507,506 L506,506 L504,508 L503,508 L502,509 L501,509 L500,510 L499,510 L498,511 L497,511 L496,512 L494,512 L493,513 L491,513 L490,514 L489,514 L488,515 L485,515 L484,516 L481,516 L480,517 L475,517 L474,518 L464,518 L463,517 L459,517 L458,516 L456,516 L455,515 L454,515 L453,514 L452,514 L451,513 L450,513 L448,511 L447,511 L430,494 L430,493 L422,485 L422,484 L417,479 L417,478 L413,474 L413,473 L410,470 L410,469 L407,466 L407,465 L404,462 L404,461 L402,459 L402,458 L399,455 L399,454 L398,453 L398,452 L396,450 L396,449 L394,447 L394,446 L393,445 L393,444 L391,442 L391,441 L390,440 L390,439 L389,438 L389,437 L388,436 L388,435 L387,434 L387,433 L386,432 L386,430 L385,429 L385,428 L384,427 L384,425 L383,424 L383,422 L382,421 L382,418 L381,417 L381,413 L382,412 L383,413 L386,413 L387,414 L400,414 L401,413 L404,413 L405,412 L407,412 L408,411 L410,411 L411,410 L413,410 L414,409 L415,409 L416,408 L417,408 L418,407 L419,407 L420,406 L421,406 L426,401 L426,400 L427,399 L427,398 L428,397 L428,396 L429,395 L429,393 L430,392 L430,387 L431,386 L431,382 L432,381 L432,376 L433,375 L433,371 L434,370 L434,368 L436,366 L442,366 L443,367 L446,367 L447,368 L449,368 L450,369 L451,369 L453,371 L453,373 L454,374 L454,375 L455,376 L455,377 L456,378 L456,380 L457,381 L457,382 L458,383 L458,384 L460,386 L460,387 L461,388 L461,389 L463,391 L463,392 L466,395 L466,396 L474,404 L475,404 L477,406 L478,406 L479,407 L480,407 L481,408 L482,408 L483,409 L485,409 L486,410 L490,410 L491,411 L509,411 L510,410 L516,410 L517,409 L520,409 L521,408 L523,408 L524,407 L526,407 L527,406 L528,406 L529,405 L530,405 L532,403 L533,403 L536,400 L537,400 L540,397 L540,396 L543,393 L543,392 L545,390 L545,388 L546,387 L546,384 L547,383 L547,380 L548,379 L548,376 L549,375 L549,371 L550,370 L550,367 L551,366 L551,362 L552,361 L552,359 L553,358 L553,356 L557,352 L558,352 L559,351 L561,351 L562,350 L563,350 L564,349 L566,349 L567,348 L568,348 L569,347 L571,347 L572,346 L574,346 L575,345 Z" stroke="url(#gradient-1)" stroke-width="2" fill="none" /><path d="M462,476 L461,477 L453,477 L457,481 L467,481 L468,480 L470,480 L471,479 L472,479 L474,477 L474,476 Z" stroke="url(#gradient-2)" stroke-width="2" fill="none" /><path d="M461,455 L460,456 L458,456 L457,457 L456,457 L454,459 L453,459 L452,458 L451,458 L450,457 L448,457 L447,456 L442,456 L441,457 L436,457 L435,458 L434,458 L434,459 L433,460 L433,462 L436,465 L438,465 L439,466 L441,466 L442,465 L444,465 L445,464 L450,464 L451,465 L455,465 L456,464 L466,464 L467,463 L472,463 L473,464 L479,464 L480,465 L486,465 L487,464 L489,464 L490,463 L493,463 L494,462 L494,461 L493,460 L493,459 L492,458 L491,458 L490,457 L478,457 L477,456 L472,456 L471,455 Z" stroke="url(#gradient-1)" stroke-width="2" fill="none" /><path d="M435,411 L433,413 L433,414 L432,415 L432,417 L431,418 L431,421 L430,422 L430,432 L431,433 L431,434 L434,437 L435,437 L437,439 L438,439 L439,440 L441,440 L442,441 L447,441 L448,440 L450,440 L451,439 L453,439 L454,438 L456,438 L457,437 L457,436 L455,436 L454,435 L452,435 L451,434 L450,434 L449,433 L448,433 L447,432 L446,432 L439,425 L439,424 L438,423 L438,422 L437,421 L437,420 L436,419 L436,416 L435,415 Z" stroke="url(#gradient-2)" stroke-width="2" fill="none" /><path d="M504,345 L505,344 L516,344 L517,345 L528,345 L529,346 L533,346 L534,347 L535,347 L537,349 L537,350 L538,351 L538,352 L539,353 L539,363 L538,364 L538,372 L537,373 L537,378 L536,379 L536,382 L535,383 L535,385 L534,386 L534,387 L533,388 L533,389 L529,393 L529,394 L527,396 L526,396 L524,398 L523,398 L522,399 L520,399 L519,400 L518,400 L517,401 L514,401 L513,402 L510,402 L509,403 L494,403 L493,402 L490,402 L489,401 L487,401 L486,400 L484,400 L482,398 L481,398 L480,397 L479,397 L473,391 L473,390 L471,388 L471,387 L470,386 L470,385 L469,384 L469,383 L468,382 L468,381 L467,380 L467,379 L466,378 L466,377 L465,376 L465,375 L464,374 L464,373 L463,372 L463,370 L462,369 L462,367 L461,366 L461,357 L464,354 L465,354 L466,353 L467,353 L468,352 L469,352 L470,351 L472,351 L473,350 L476,350 L477,349 L480,349 L481,348 L484,348 L485,347 L488,347 L489,346 L493,346 L494,345 Z" stroke="url(#gradient-1)" stroke-width="2" fill="none" /><path d="M485,351 L484,352 L483,352 L482,353 L480,353 L478,355 L477,355 L477,359 L478,359 L479,360 L480,359 L484,359 L485,358 L486,359 L486,362 L487,363 L487,364 L488,365 L488,366 L489,367 L489,368 L493,372 L494,372 L495,373 L496,373 L497,374 L500,374 L501,375 L505,375 L506,374 L508,374 L509,373 L510,373 L513,370 L513,369 L514,368 L514,366 L515,365 L515,358 L514,357 L515,356 L524,356 L525,355 L524,354 L522,354 L521,353 L518,353 L517,352 L513,352 L512,351 Z" stroke="url(#gradient-2)" stroke-width="2" fill="none" /><path d="M658,332 L659,331 L660,332 L660,333 L659,334 L658,333 Z" stroke="url(#gradient-1)" stroke-width="2" fill="none" /><path d="M656,329 L657,328 L659,330 L659,331 L658,332 L656,330 Z" stroke="url(#gradient-2)" stroke-width="2" fill="none" /><path d="M624,325 L625,324 L626,325 L627,325 L628,326 L629,326 L631,328 L632,328 L637,333 L637,334 L640,337 L640,338 L641,339 L641,340 L642,341 L642,342 L643,343 L643,344 L644,345 L644,346 L645,347 L645,348 L646,349 L646,352 L647,353 L647,356 L648,357 L648,361 L649,362 L649,370 L650,371 L650,383 L649,384 L649,396 L648,397 L648,403 L647,404 L647,409 L646,410 L646,414 L645,415 L645,418 L644,419 L644,422 L643,423 L643,425 L642,426 L641,425 L641,421 L642,420 L642,393 L641,392 L641,386 L640,385 L640,380 L639,379 L639,375 L638,374 L638,370 L637,369 L637,366 L636,365 L636,361 L635,360 L635,357 L634,356 L634,354 L633,353 L633,351 L632,350 L632,347 L631,346 L631,344 L630,343 L630,341 L629,340 L629,338 L628,337 L628,335 L627,334 L627,332 L626,331 L626,329 L625,328 L625,327 L624,326 Z" stroke="url(#gradient-1)" stroke-width="2" fill="none" /><path d="M551,305 L552,304 L553,305 L552,306 Z" stroke="url(#gradient-2)" stroke-width="2" fill="none" /><path d="M358,253 L359,254 L359,255 L357,257 L357,258 L356,259 L356,260 L354,262 L354,263 L353,264 L353,265 L352,266 L352,267 L351,268 L351,269 L350,270 L350,271 L349,272 L349,273 L348,274 L348,275 L347,276 L347,277 L346,278 L346,279 L345,280 L345,281 L344,282 L344,283 L343,284 L343,285 L342,286 L342,287 L341,288 L341,289 L340,290 L340,292 L339,293 L339,294 L338,295 L338,296 L337,297 L337,299 L336,300 L336,301 L335,302 L335,304 L334,305 L334,307 L333,308 L333,310 L332,311 L332,313 L331,314 L331,316 L330,317 L330,320 L329,321 L329,324 L328,325 L328,329 L327,330 L327,334 L326,335 L326,342 L325,343 L325,374 L326,375 L326,382 L327,383 L327,389 L328,390 L328,394 L329,395 L329,398 L330,399 L330,403 L331,404 L331,407 L332,408 L332,410 L333,411 L333,413 L332,414 L331,413 L331,412 L330,411 L330,410 L329,409 L329,408 L328,407 L328,405 L327,404 L327,403 L326,402 L326,401 L325,400 L325,399 L324,398 L324,397 L323,396 L323,394 L322,393 L322,392 L321,391 L321,389 L320,388 L320,386 L319,385 L319,383 L318,382 L318,380 L317,379 L317,376 L316,375 L316,372 L315,371 L315,367 L314,366 L314,360 L313,359 L313,348 L314,347 L314,338 L315,337 L315,332 L316,331 L316,327 L317,326 L317,323 L318,322 L318,319 L319,318 L319,315 L320,314 L320,312 L321,311 L321,309 L322,308 L322,307 L323,306 L323,304 L324,303 L324,301 L325,300 L325,299 L326,298 L326,297 L327,296 L327,295 L328,294 L328,293 L329,292 L329,291 L330,290 L330,289 L331,288 L331,287 L332,286 L332,285 L334,283 L334,282 L335,281 L335,280 L338,277 L338,276 L340,274 L340,273 L345,268 L345,267 L352,260 L352,259 Z" stroke="url(#gradient-1)" stroke-width="2" fill="none" /><path d="M358,253 L359,252 L360,253 L359,254 Z" stroke="url(#gradient-2)" stroke-width="2" fill="none" /><path d="M406,230 L407,229 L408,229 L411,232 L411,233 L413,235 L413,236 L414,237 L414,238 L416,240 L416,241 L417,242 L417,243 L419,245 L419,246 L429,256 L430,256 L434,260 L435,260 L437,262 L438,262 L440,264 L441,264 L443,266 L444,266 L446,268 L447,268 L449,270 L450,270 L451,271 L452,271 L453,272 L454,272 L456,274 L457,274 L458,275 L459,275 L460,276 L461,276 L462,277 L463,277 L464,278 L465,278 L466,279 L467,279 L469,281 L470,281 L471,282 L472,282 L473,283 L474,283 L475,284 L477,284 L479,286 L481,286 L482,287 L483,287 L484,288 L485,288 L486,289 L487,289 L488,290 L489,290 L490,291 L491,291 L492,292 L493,292 L494,293 L495,293 L496,294 L497,294 L498,295 L499,295 L500,296 L502,296 L503,297 L504,297 L505,298 L506,298 L507,299 L508,299 L509,300 L510,300 L511,301 L512,301 L513,302 L514,302 L515,303 L516,303 L517,304 L518,304 L519,305 L521,305 L522,306 L523,306 L524,307 L525,307 L526,308 L527,308 L528,309 L529,309 L530,310 L531,310 L532,311 L533,311 L535,313 L536,313 L537,314 L538,314 L539,315 L540,315 L541,316 L542,316 L543,317 L544,317 L546,319 L547,319 L548,320 L549,320 L551,322 L552,322 L553,323 L554,323 L556,325 L557,325 L559,327 L560,327 L561,328 L562,328 L564,330 L565,330 L568,333 L567,334 L564,334 L563,335 L559,335 L558,336 L553,336 L552,337 L542,337 L541,336 L522,336 L521,335 L519,335 L518,336 L497,336 L496,337 L487,337 L486,338 L479,338 L478,339 L474,339 L473,340 L470,340 L469,341 L466,341 L465,342 L463,342 L462,343 L460,343 L459,344 L458,344 L457,345 L456,345 L455,346 L454,346 L453,347 L452,347 L451,348 L450,348 L449,349 L448,349 L447,350 L446,350 L445,351 L438,351 L437,350 L435,350 L434,349 L431,349 L430,348 L428,348 L427,347 L425,347 L424,346 L422,346 L421,345 L418,345 L417,344 L415,344 L414,343 L411,343 L410,342 L406,342 L405,341 L402,341 L401,340 L397,340 L396,339 L391,339 L390,338 L380,338 L379,337 L373,337 L372,338 L369,338 L368,337 L368,336 L367,335 L367,332 L366,331 L366,329 L367,328 L368,329 L371,329 L372,330 L376,330 L377,331 L381,331 L382,332 L386,332 L387,333 L390,333 L391,334 L395,334 L396,335 L399,335 L400,336 L403,336 L404,337 L406,337 L407,338 L410,338 L411,339 L413,339 L414,340 L416,340 L417,341 L419,341 L420,342 L421,342 L421,339 L420,338 L420,336 L419,335 L419,334 L418,333 L418,332 L414,328 L413,328 L412,327 L411,327 L410,326 L409,326 L408,325 L407,325 L406,324 L404,324 L403,323 L401,323 L400,322 L398,322 L397,321 L395,321 L394,320 L391,320 L390,319 L385,319 L384,318 L368,318 L367,319 L365,319 L364,318 L364,299 L365,298 L365,292 L366,291 L366,287 L367,286 L367,285 L368,284 L368,283 L371,280 L371,279 L373,277 L373,276 L376,273 L376,272 L379,269 L379,268 L383,264 L383,263 L388,258 L388,257 L393,252 L393,251 L397,247 L397,246 L399,244 L399,243 L401,241 L401,240 L402,239 L402,238 L403,237 L403,236 L404,235 L404,234 L405,233 L405,232 L406,231 Z" stroke="url(#gradient-1)" stroke-width="2" fill="none" /><path d="M517,312 L516,313 L509,313 L508,314 L504,314 L503,315 L498,315 L497,316 L493,316 L492,317 L489,317 L488,318 L484,318 L483,319 L480,319 L479,320 L476,320 L475,321 L472,321 L471,322 L469,322 L468,323 L466,323 L465,324 L462,324 L461,325 L459,325 L458,326 L457,326 L457,327 L456,328 L456,330 L457,331 L457,334 L458,335 L458,336 L460,338 L468,338 L469,337 L472,337 L473,336 L476,336 L477,335 L480,335 L481,334 L484,334 L485,333 L488,333 L489,332 L492,332 L493,331 L497,331 L498,330 L501,330 L502,329 L506,329 L507,328 L510,328 L511,327 L515,327 L516,326 L519,326 L520,325 L524,325 L525,324 L528,324 L529,323 L533,323 L534,322 L539,322 L540,321 L543,321 L539,317 L538,317 L537,316 L536,316 L535,315 L534,315 L533,314 L532,314 L531,313 L526,313 L525,312 Z" stroke="url(#gradient-2)" stroke-width="2" fill="none" /><path d="M429,226 L430,225 L431,225 L434,228 L435,228 L437,230 L438,230 L440,232 L441,232 L442,233 L443,233 L445,235 L446,235 L447,236 L448,236 L450,238 L451,238 L452,239 L453,239 L454,240 L455,240 L457,242 L458,242 L459,243 L460,243 L461,244 L462,244 L463,245 L464,245 L466,247 L467,247 L468,248 L469,248 L470,249 L471,249 L472,250 L473,250 L475,252 L476,252 L477,253 L478,253 L479,254 L480,254 L481,255 L482,255 L484,257 L485,257 L486,258 L487,258 L488,259 L489,259 L490,260 L491,260 L493,262 L494,262 L495,263 L496,263 L497,264 L498,264 L500,266 L501,266 L502,267 L503,267 L505,269 L506,269 L507,270 L508,270 L510,272 L511,272 L512,273 L513,273 L515,275 L516,275 L517,276 L518,276 L520,278 L521,278 L523,280 L524,280 L527,283 L528,283 L530,285 L531,285 L534,288 L535,288 L540,293 L541,293 L552,304 L551,305 L550,305 L549,304 L548,304 L547,303 L546,303 L545,302 L544,302 L543,301 L542,301 L540,299 L539,299 L538,298 L537,298 L536,297 L535,297 L534,296 L533,296 L531,294 L530,294 L529,293 L528,293 L527,292 L526,292 L524,290 L523,290 L522,289 L521,289 L519,287 L518,287 L517,286 L516,286 L515,285 L514,285 L513,284 L512,284 L510,282 L509,282 L508,281 L507,281 L506,280 L505,280 L504,279 L503,279 L502,278 L501,278 L499,276 L498,276 L497,275 L496,275 L495,274 L494,274 L493,273 L492,273 L491,272 L490,272 L489,271 L488,271 L487,270 L486,270 L484,268 L483,268 L482,267 L481,267 L480,266 L479,266 L477,264 L476,264 L475,263 L474,263 L472,261 L471,261 L470,260 L469,260 L467,258 L466,258 L464,256 L463,256 L461,254 L460,254 L457,251 L456,251 L453,248 L452,248 L449,245 L448,245 L443,240 L442,240 L434,232 L434,231 Z" stroke="url(#gradient-1)" stroke-width="2" fill="none" /><path d="M428,225 L429,224 L430,225 L429,226 Z" stroke="url(#gradient-2)" stroke-width="2" fill="none" /><path d="M444,215 L445,214 L450,214 L451,215 L455,215 L456,216 L460,216 L461,217 L464,217 L465,218 L467,218 L468,219 L471,219 L472,220 L474,220 L475,221 L476,221 L477,222 L479,222 L480,223 L482,223 L483,224 L484,224 L485,225 L487,225 L488,226 L489,226 L490,227 L491,227 L492,228 L493,228 L494,229 L496,229 L497,230 L498,230 L499,231 L500,231 L501,232 L502,232 L503,233 L504,233 L505,234 L506,234 L507,235 L508,235 L510,237 L511,237 L512,238 L513,238 L514,239 L515,239 L517,241 L518,241 L519,242 L520,242 L522,244 L523,244 L525,246 L526,246 L528,248 L529,248 L532,251 L533,251 L535,253 L536,253 L539,256 L540,256 L545,261 L546,261 L553,268 L554,268 L561,275 L561,276 L567,282 L567,283 L571,287 L571,288 L574,291 L574,292 L577,295 L577,296 L579,298 L579,299 L581,301 L581,302 L583,304 L583,305 L585,307 L585,308 L586,309 L586,310 L587,311 L587,312 L589,314 L589,315 L590,316 L590,317 L591,318 L591,319 L592,320 L592,321 L593,322 L593,323 L594,324 L594,325 L595,326 L595,327 L596,328 L596,329 L597,330 L597,331 L598,332 L598,333 L599,334 L599,335 L600,336 L600,337 L601,338 L601,340 L602,341 L602,342 L603,343 L603,344 L604,345 L604,346 L605,347 L605,348 L606,349 L606,351 L607,352 L607,353 L606,354 L603,354 L601,352 L601,351 L599,349 L599,348 L598,347 L598,346 L597,345 L597,344 L595,342 L595,341 L594,340 L594,339 L592,337 L592,336 L590,334 L590,333 L588,331 L588,330 L586,328 L586,327 L584,325 L584,324 L582,322 L582,321 L580,319 L580,318 L577,315 L577,314 L575,312 L575,311 L572,308 L572,307 L569,304 L569,303 L566,300 L566,299 L563,296 L563,295 L559,291 L559,290 L552,283 L552,282 L541,271 L540,271 L533,264 L532,264 L527,259 L526,259 L523,256 L522,256 L519,253 L518,253 L515,250 L514,250 L512,248 L511,248 L509,246 L508,246 L506,244 L505,244 L503,242 L502,242 L501,241 L500,241 L498,239 L497,239 L496,238 L495,238 L493,236 L492,236 L491,235 L490,235 L489,234 L488,234 L487,233 L486,233 L485,232 L484,232 L483,231 L482,231 L481,230 L480,230 L479,229 L478,229 L477,228 L476,228 L475,227 L474,227 L473,226 L471,226 L470,225 L469,225 L468,224 L467,224 L466,223 L464,223 L463,222 L461,222 L460,221 L459,221 L458,220 L456,220 L455,219 L453,219 L452,218 L450,218 L449,217 L447,217 L446,216 L445,216 Z" stroke="url(#gradient-1)" stroke-width="2" fill="none" /><path d="M441,214 L442,213 L444,213 L445,214 L444,215 L442,215 Z" stroke="url(#gradient-2)" stroke-width="2" fill="none" /><path d="M378,203 L379,202 L380,203 L379,204 Z" stroke="url(#gradient-1)" stroke-width="2" fill="none" /><path d="M493,182 L494,181 L497,181 L498,182 L500,182 L501,183 L504,183 L505,184 L507,184 L508,185 L510,185 L511,186 L513,186 L514,187 L516,187 L517,188 L519,188 L520,189 L521,189 L522,190 L523,190 L524,191 L526,191 L527,192 L528,192 L529,193 L530,193 L531,194 L532,194 L533,195 L534,195 L535,196 L536,196 L538,198 L539,198 L540,199 L541,199 L542,200 L543,200 L544,201 L545,201 L547,203 L548,203 L549,204 L550,204 L552,206 L553,206 L555,208 L556,208 L557,209 L558,209 L561,212 L562,212 L564,214 L565,214 L568,217 L569,217 L572,220 L573,220 L577,224 L578,224 L587,233 L588,233 L609,254 L609,255 L616,262 L616,263 L620,267 L620,268 L624,272 L624,273 L627,276 L627,277 L630,280 L630,281 L632,283 L632,284 L634,286 L634,287 L636,289 L636,290 L638,292 L638,293 L640,295 L640,296 L641,297 L641,298 L643,300 L643,301 L644,302 L644,303 L645,304 L645,305 L647,307 L647,308 L648,309 L648,310 L649,311 L649,312 L650,313 L650,314 L651,315 L651,316 L652,317 L652,318 L653,319 L653,320 L654,321 L654,322 L655,323 L655,324 L656,325 L656,326 L657,327 L657,328 L656,329 L654,327 L654,326 L653,325 L653,324 L650,321 L650,320 L648,318 L648,317 L646,315 L646,314 L643,311 L643,310 L640,307 L640,306 L637,303 L637,302 L634,299 L634,298 L631,295 L631,294 L627,290 L627,289 L622,284 L622,283 L616,277 L616,276 L606,266 L606,265 L581,240 L580,240 L572,232 L571,232 L565,226 L564,226 L560,222 L559,222 L555,218 L554,218 L551,215 L550,215 L548,213 L547,213 L544,210 L543,210 L541,208 L540,208 L538,206 L537,206 L536,205 L535,205 L533,203 L532,203 L530,201 L529,201 L528,200 L527,200 L525,198 L524,198 L523,197 L522,197 L520,195 L519,195 L518,194 L517,194 L516,193 L515,193 L514,192 L513,192 L512,191 L511,191 L510,190 L509,190 L507,188 L506,188 L505,187 L504,187 L503,186 L502,186 L501,185 L499,185 L498,184 L497,184 L496,183 L494,183 Z" stroke="url(#gradient-2)" stroke-width="2" fill="none" /><path d="M492,181 L493,180 L494,181 L493,182 Z" stroke="url(#gradient-1)" stroke-width="2" fill="none" />
</svg>
