<svg xmlns="http://www.w3.org/2000/svg" width="430" height="430" style="width:100%;height:100%;transform:translate3d(0,0,0);content-visibility:visible" viewBox="0 0 430 430"><defs><clipPath id="r"><path d="M0 0h430v430H0z"/></clipPath><clipPath id="x"><path d="M0 0h430v430H0z"/></clipPath><clipPath id="g"><path d="M0 0h430v430H0z"/></clipPath><clipPath id="h"><path d="M0 0h430v430H0z"/></clipPath><clipPath id="u"><path d="M0 0h430v430H0z"/></clipPath><clipPath id="m"><path d="M0 0h430v430H0z"/></clipPath><clipPath id="n"><path d="M0 0h430v430H0z"/></clipPath><filter id="a" width="100%" height="100%" x="0%" y="0%" filterUnits="objectBoundingBox"><feComponentTransfer in="SourceGraphic"><feFuncA tableValues="1.0 0.0" type="table"/></feComponentTransfer></filter><filter id="y" width="300%" height="300%" x="-100%" y="-100%"><feGaussianBlur result="filter_result_0"/></filter><filter id="d" width="100%" height="100%" x="0%" y="0%" filterUnits="objectBoundingBox"><feComponentTransfer in="SourceGraphic"><feFuncA tableValues="1.0 0.0" type="table"/></feComponentTransfer></filter><filter id="w" width="300%" height="300%" x="-100%" y="-100%"><feGaussianBlur result="filter_result_0" stdDeviation="52.5 52.5"/></filter><mask id="i" mask-type="alpha"><g filter="url(#a)"><path fill="#fff" d="M0 0h430v430H0z" opacity="0"/><use xmlns:ns1="http://www.w3.org/1999/xlink" ns1:href="#b"/></g></mask><mask id="z" mask-type="alpha"><use xmlns:ns2="http://www.w3.org/1999/xlink" ns2:href="#c"/></mask><mask id="o" mask-type="alpha"><g filter="url(#d)"><path fill="#fff" d="M0 0h430v430H0z" opacity="0"/><use xmlns:ns3="http://www.w3.org/1999/xlink" ns3:href="#e"/></g></mask><mask id="v" mask-type="alpha"><use xmlns:ns4="http://www.w3.org/1999/xlink" ns4:href="#f"/></mask><g id="c" fill-opacity="0" stroke-linecap="round" stroke-linejoin="round" clip-path="url(#g)" style="display:none"><g clip-path="url(#h)" mask="url(#i)" style="display:none"><path class="secondary" style="display:none"/><g style="display:none"><path class="primary"/><path class="secondary"/><path class="secondary"/><path class="secondary"/></g><g style="display:none"><path class="primary"/><path class="primary"/></g></g><g style="display:none"><path class="secondary"/><path class="secondary"/></g></g><g id="b" style="display:none"><path fill-opacity="0" stroke-linecap="round" stroke-linejoin="round" class="secondary"/><path fill-opacity="0" stroke-linecap="round" stroke-linejoin="round" class="secondary"/><path/></g><g id="f" fill-opacity="0" stroke-linecap="round" stroke-linejoin="round" clip-path="url(#m)" style="display:block"><g stroke-width="12" clip-path="url(#n)" mask="url(#o)" style="display:block"><path stroke="#08A88A" d="M88.25 102.369C90.423 53.761 102.996-100.46.491-100.46q0 0 0 0h-.982q0 0 0 0c-102.505 0-92 156.943-87.546 204.551" class="secondary" style="display:block" transform="matrix(-1 0 0 1 216.028 153.148)"/><g style="display:block"><path stroke="#121331" d="M278.603 135.457v33.919c0 34.139-27.681 61.821-61.82 61.821h-1.51c-34.139 0-61.82-27.682-61.82-61.821v-30.323" class="primary"/><path stroke="#08A88A" d="M149.841 89.076c-3.983 14.548-.33 50.839-.33 50.839 1.331-.273 2.652-.567 3.941-.86 74.692-16.907 86.788-61.81 86.788-61.81 22.267 12.19 38.362 40.802 38.362 58.215.073 2.012 0 3.166 0 3.166 3.87-6.273 4.425-22.931 3.628-49.02m-3.627 49.017" class="secondary"/></g><g stroke="#121331" style="display:block"><path d="m248.84 223.443-.01 19.41 9.266.498c43.48 0 78.719 35.239 78.719 78.719v31.512c0 8.459-6.862 15.32-15.321 15.32h-19.43c-38.487 2.989-37.994 16.815-70.166 16.815h-33.796c-32.172 0-31.678-13.826-70.166-16.815h-19.431c-8.459 0-15.32-6.861-15.32-15.32V322.07c0-43.48 35.239-78.719 78.719-78.719l9.163-.498.01-.063-.01-18.942" class="primary"/><path d="M271.64 244.794c-1.29 23.43-25.99 42.12-56.26 42.12-30.55 0-55.41-19.03-56.29-42.75" class="primary"/></g></g><g stroke="#08A88A" style="display:block"><path stroke-width="14.8" d="m330.546 355.57 37.23 36.593" class="secondary"/><path stroke-width="11.396" d="M329.53 267.928c23.97 23.97 23.97 62.834 0 86.804s-62.836 23.97-86.806 0-23.97-62.834 0-86.804 62.836-23.97 86.806 0" class="secondary"/></g></g><g id="e" style="display:block"><path fill-opacity="0" stroke="red" stroke-linecap="round" stroke-linejoin="round" stroke-width="93.24" d="m330.546 355.57 37.23 36.593"/><path fill-opacity="0" stroke="red" stroke-linecap="round" stroke-linejoin="round" stroke-width="36.556" d="M329.53 267.928c23.97 23.97 23.97 62.834 0 86.804s-62.836 23.97-86.806 0-23.97-62.834 0-86.804 62.836-23.97 86.806 0"/><path fill="red" d="M329.53 267.928c23.97 23.97 23.97 62.834 0 86.804s-62.836 23.97-86.806 0-23.97-62.834 0-86.804 62.836-23.97 86.806 0"/></g></defs><g clip-path="url(#r)"><g clip-path="url(#u)" mask="url(#v)" style="display:block"><g filter="url(#w)" transform="rotate(-94 238.762 -16.565)scale(2.4)"><g class="design"><path fill="#4BE1EC" d="M0-250c137.975 0 250 112.025 250 250S137.975 250 0 250-250 137.975-250 0-137.975-250 0-250" class="primary"/></g><g class="design"><path fill="#CB5EEE" d="M113.242-295.384c97.478 0 176.5 79.022 176.5 176.5s-79.022 176.5-176.5 176.5c-43.948 0-74.396-34.057-105.29-60.631-37.631-32.369-71.21-62.338-71.21-115.869 0-97.478 79.022-176.5 176.5-176.5" class="secondary"/></g></g></g><g clip-path="url(#x)" filter="url(#y)" mask="url(#z)" style="display:none"><g class="design"><path class="primary"/></g><g class="design"><path class="secondary"/></g></g></g></svg>